<svg version="1.2" xmlns="http://www.w3.org/2000/svg" viewBox="0 0 150 23" width="150" height="23">
	<title>logo-light-svg</title>
	<style>
		.s0 {
			fill: #32a09b
		}

		.s1 {
			fill: #191f23
		}
	</style>
	<path id="Layer" class="s0" d="m12.5 0c-1.1 1.6-0.1 5.8 0.2 7.7l0.9-0.3c-0.2-2 0-5.7-1.1-7.4z" />
	<path id="Layer" class="s0" d="m15.5 0.2l-1.7 7.2 1 0.3 1.4-7.2z" />
	<path id="Layer" class="s0"
		d="m8.7 1.2l2.6 6.7-4.4-5.3-1 0.2 4.5 6-6.3-3.9-0.2 0.9 6.2 4 1.2-1.9 1.2-0.2-2.8-6.8z" />
	<path id="Layer" class="s0" d="m18.5 1.2l-3.5 6.7c1.6 0.2 4.6-5.5 3.5-6.7z" />
	<path id="Layer" class="s0" d="m16.2 8.8c2.1-0.4 4.6-3.6 5.8-5.3-2-0.2-5.3 3.5-5.8 5.3z" />
	<path id="Layer" class="s0" d="m2.7 7.9l-0.2 0.7c1.9 1 4.9 2 7.2 2.1-0.6-1.7-5.3-2.5-7-2.8z" />
	<path id="Layer" class="s0" d="m2 11.2v0.9h7.4v-0.9z" />
	<path id="Layer" class="s0" d="m17.6 12.1l7.4-0.3v-0.4c-1.5-0.5-6.9-1-7.4 0.7z" />
	<path id="Layer" class="s0" d="m17.3 12.5c0.6 1.8 5.3 2.5 7 2.8l0.2-0.2v-0.5c-1.9-1-4.9-2-7.2-2.1z" />
	<path id="Layer" class="s0" d="m17.1 13.5l-0.5 0.9 6.3 4 0.2-1z" />
	<path id="Layer" class="s0" d="m5.3 19.7l0.2 0.3 5.6-4.9c-1.5-1.4-5.2 3.3-5.8 4.6z" />
	<path id="Layer" class="s0"
		d="m17.3 22.3h1l-2.6-7.2h0.2c1 1.8 3 4.7 4.9 5.6l0.3-0.3c-0.8-1.6-2.6-4.1-4.1-5.2-0.6-0.5-1.8-0.4-2.1 0.5-0.5 1.5 2 5 2.4 6.6z" />
	<path id="Layer" class="s0" d="m11.1 15.1c-0.7 1.6-3.9 5.6-2.6 7l3.5-6.8z" />
	<path id="Layer" class="s0"
		d="m12.2 15.6l-1.1 7.4c2.1-0.6 0.9-5.6 2.5-7 0 1.5-0.2 6.5 1.4 7 0-1.5 0.3-5.9-0.7-7-0.4-0.5-1.5-0.4-2.1-0.4z" />
	<path id="Layer" fill-rule="evenodd" class="s0"
		d="m76.6 18.3q-2.4 0-3.8-1.4-1.5-1.3-1.5-3.8v-3q0-2.5 1.5-3.8 1.4-1.3 3.8-1.3 2.4 0 3.8 1.3 1.5 1.3 1.5 3.8v3q0 2.5-1.5 3.8-1.4 1.4-3.8 1.4zm0-2.2q1.4 0 2.1-0.8 0.7-0.8 0.8-2.1v-3.2q-0.1-1.3-0.8-2.1-0.7-0.8-2.1-0.8-1.3 0-2.1 0.8-0.7 0.8-0.7 2.1v3.2q0 1.3 0.7 2.1 0.8 0.8 2.1 0.8zm9.3 1.9l-2.8-9.1h2.4l2.1 7.4h0.3l2.1-7.4h2.5l-2.9 9.1zm11.9 0.3q-1.3 0-2.3-0.6-1.1-0.6-1.6-1.6-0.6-1.1-0.6-2.5v-0.2q0-1.5 0.6-2.5 0.5-1.1 1.5-1.6 1.1-0.6 2.4-0.6 1.3 0 2.3 0.6 1 0.6 1.6 1.6 0.5 1.1 0.5 2.5v0.8l-6.6-0.1q0.1 1 0.7 1.6 0.7 0.5 1.6 0.5 1 0 1.4-0.4 0.5-0.4 0.7-0.9l1.9 1q-0.2 0.5-0.7 1-0.5 0.6-1.3 1-0.8 0.4-2.1 0.4zm-2.2-5.9h4.3q-0.1-0.7-0.7-1.2-0.5-0.5-1.4-0.5-0.9 0-1.5 0.5-0.5 0.5-0.7 1.2zm8.7 5.6v-9.1h2.2v1.1h0.3q0.2-0.6 0.7-0.8 0.5-0.3 1.1-0.3h1.1v2.1h-1.1q-0.9 0-1.5 0.4-0.5 0.5-0.5 1.5v5.1zm8.7 0v-7.2h-2.3v-1.9h2.3v-1.6q0-1 0.5-1.5 0.6-0.6 1.5-0.6h2.4v1.9h-1.6q-0.5 0-0.5 0.6v1.2h2.4v1.9h-2.4v7.2zm5.9 0v-12.8h2.3v12.8zm9.2 0.3q-1.4 0-2.4-0.6-1.1-0.5-1.7-1.6-0.7-1-0.7-2.5v-0.3q0-1.4 0.7-2.5 0.6-1 1.7-1.6 1-0.5 2.4-0.5 1.3 0 2.4 0.5 1.1 0.6 1.7 1.6 0.6 1.1 0.6 2.5v0.3q0 1.5-0.6 2.5-0.6 1.1-1.7 1.6-1.1 0.6-2.4 0.6zm0-2.1q1 0 1.7-0.7 0.7-0.7 0.7-1.9v-0.2q0-1.3-0.7-2-0.6-0.7-1.7-0.7-1.1 0-1.8 0.7-0.7 0.7-0.7 2v0.2q0 1.2 0.7 1.9 0.7 0.7 1.8 0.7zm7.5 1.8l-1.2-9.1h2.3l0.8 7.5h0.3l1.1-7.5h3.7l1.2 7.5h0.3l0.8-7.5h2.3l-1.3 9.1h-3.8l-1.1-7.5h-0.4l-1.1 7.5z" />
	<path id="Code" class="s1" aria-label="Code"
		d="m32 18.3q-2.3 0-3.7-1.3-1.4-1.4-1.4-3.8v-3q0-2.4 1.4-3.7 1.4-1.4 3.7-1.4 2.3 0 3.5 1.3 1.3 1.3 1.3 3.5v0.1h-2.1v-0.2q0-1.2-0.7-1.9-0.7-0.8-2-0.8-1.4 0-2.1 0.8-0.8 0.8-0.8 2.3v3q0 1.5 0.8 2.3 0.7 0.8 2.1 0.8 1.3 0 2-0.7 0.7-0.8 0.7-2v-0.3h2.1v0.2q0 2.2-1.3 3.5-1.2 1.3-3.5 1.3zm11.1 0q-1.3 0-2.4-0.6-1-0.5-1.7-1.6-0.5-1-0.5-2.4v-0.3q0-1.4 0.5-2.4 0.7-1.1 1.7-1.6 1.1-0.5 2.4-0.5 1.3 0 2.4 0.5 1 0.5 1.6 1.6 0.6 1 0.6 2.4v0.3q0 1.4-0.6 2.4-0.6 1.1-1.6 1.6-1.1 0.6-2.4 0.6zm0-1.9q1.1 0 1.9-0.7 0.7-0.7 0.7-2.1v-0.1q0-1.4-0.7-2.1-0.8-0.7-1.9-0.7-1.1 0-1.9 0.7-0.7 0.7-0.7 2.1v0.1q0 1.4 0.7 2.1 0.8 0.7 1.9 0.7zm10.5 1.9q-1.1 0-2.1-0.6-0.9-0.5-1.5-1.5-0.5-1.1-0.5-2.5v-0.3q0-1.4 0.5-2.5 0.6-1 1.5-1.5 1-0.5 2.1-0.5 0.8 0 1.4 0.2 0.5 0.2 0.9 0.5 0.3 0.3 0.5 0.6h0.3v-4.8h2.1v12.6h-2v-1.2h-0.3q-0.3 0.6-1 1-0.7 0.5-1.9 0.5zm0.6-1.8q1.1 0 1.8-0.8 0.8-0.7 0.8-2.1v-0.1q0-1.4-0.8-2.1-0.7-0.7-1.8-0.7-1.1 0-1.9 0.7-0.7 0.7-0.7 2.1v0.1q0 1.4 0.7 2.1 0.8 0.8 1.9 0.8zm11.3 1.8q-1.3 0-2.4-0.6-1-0.6-1.5-1.6-0.6-1.1-0.6-2.4v-0.3q0-1.4 0.6-2.4 0.5-1 1.5-1.6 1-0.5 2.3-0.5 1.3 0 2.3 0.5 1 0.6 1.5 1.6 0.6 1 0.6 2.4v0.7h-6.7q0 1.1 0.7 1.7 0.7 0.7 1.7 0.7 1.1 0 1.5-0.5 0.5-0.4 0.8-1l1.7 0.9q-0.3 0.5-0.7 1-0.5 0.6-1.3 1-0.8 0.4-2 0.4zm-2.4-5.7h4.6q-0.1-0.9-0.7-1.4-0.6-0.5-1.6-0.5-1 0-1.6 0.5-0.6 0.5-0.7 1.4z" />
</svg>